<svg xmlns="http://www.w3.org/2000/svg" viewBox="0 0 32 32" width="32" height="32">
  <!-- Calendar base -->
  <rect x="4" y="6" width="24" height="22" rx="2" ry="2" fill="#ffffff" stroke="#3b82f6" stroke-width="2"/>
  
  <!-- Calendar header -->
  <rect x="4" y="6" width="24" height="6" rx="2" ry="2" fill="#3b82f6"/>
  
  <!-- Spiral bindings -->
  <rect x="8" y="2" width="2" height="6" rx="1" fill="#6b7280"/>
  <rect x="14" y="2" width="2" height="6" rx="1" fill="#6b7280"/>
  <rect x="20" y="2" width="2" height="6" rx="1" fill="#6b7280"/>
  
  <!-- Calendar grid lines -->
  <line x1="4" y1="16" x2="28" y2="16" stroke="#e5e7eb" stroke-width="1"/>
  <line x1="4" y1="20" x2="28" y2="20" stroke="#e5e7eb" stroke-width="1"/>
  <line x1="4" y1="24" x2="28" y2="24" stroke="#e5e7eb" stroke-width="1"/>
  
  <line x1="10" y1="12" x2="10" y2="28" stroke="#e5e7eb" stroke-width="1"/>
  <line x1="16" y1="12" x2="16" y2="28" stroke="#e5e7eb" stroke-width="1"/>
  <line x1="22" y1="12" x2="22" y2="28" stroke="#e5e7eb" stroke-width="1"/>
  
  <!-- Holiday dots -->
  <circle cx="7" cy="18" r="1.5" fill="#ef4444"/>
  <circle cx="13" cy="22" r="1.5" fill="#10b981"/>
  <circle cx="19" cy="18" r="1.5" fill="#f59e0b"/>
  <circle cx="25" cy="26" r="1.5" fill="#8b5cf6"/>
</svg>
